# xmcd
#
# Track frame offsets:
#	150
#	10945
#	22308
#	32366
#	45907
#	60215
#	77422
#	102846
#	119216
#	138920
#	161688
#	176841
#	196686
#	217989
#
# Disc length: 3514 seconds
#
# Revision: 0
# Processed by: cddbd v1.5.1PL2 Copyright (c) Steve Scherf et al.
# Submitted via: dBpowerAMP V4.0
#
DISCID=ad0db80e
DTITLE=Hawkeye and Hoe - Shove It Up The Chicken
DYEAR=2001
DGENRE=Country
TTITLE0=Blue Moon Of Kentucky
TTITLE1=Chicken Pie
TTITLE2=7 Nights To Rock
TTITLE3=Maybeline
TTITLE4=Jambalaya
TTITLE5=Going Down The Road
TTITLE6=AppleJack
TTITLE7=Folsom Prison Blues
TTITLE8=Nighttrain To Memphis
TTITLE9=Duelling Banjos
TTITLE10=Poor Paddy
TTITLE11=Drunken Sailor
TTITLE12=I Saw The Light
TTITLE13=Drink Up Thee Cyder/Jens Hansens Bondegård/Here's To The Good Ole Beer
EXTD=
EXTT0=
EXTT1=
EXTT2=
EXTT3=
EXTT4=
EXTT5=
EXTT6=
EXTT7=
EXTT8=
EXTT9=
EXTT10=
EXTT11=
EXTT12=
EXTT13=
PLAYORDER=
